<svg xmlns="http://www.w3.org/2000/svg" width="271" height="411" viewBox="0 0 271 411"><g transform="translate(-1077 -54)"><g transform="translate(1077 54)" fill="#fff" stroke="#000" stroke-width="2"><rect width="271" height="411" rx="9" stroke="none"/><rect x="1" y="1" width="269" height="409" rx="8" fill="none"/></g><path d="M238.5,0h0L200.608,0,119.25,84.52,37.892,0H0L119.25,123.883,238.5,0Z" transform="translate(1093.25 56.117)" fill="rgba(236,207,93,0.85)"/><path d="M238.5,123.883h0l-37.891,0L119.25,39.363,37.892,123.881H0L119.25,0,238.5,123.881Z" transform="translate(1093.25 339.117)" fill="rgba(236,207,93,0.85)"/><g transform="translate(1100 72)" fill="none" stroke="#eccf5d" stroke-width="4"><rect width="225" height="370" rx="9" stroke="none"/><rect x="2" y="2" width="221" height="366" rx="7" fill="none"/></g><g transform="translate(334 -1)"><g transform="translate(777 89)" fill="none" stroke="rgba(0,0,0,0.81)" stroke-width="29"><rect width="203" height="339" rx="9" stroke="none"/><rect x="14.5" y="14.5" width="174" height="310" rx="5.5" fill="none"/></g></g><g transform="translate(1184 230)" fill="#fff" stroke="#eccf5d" stroke-width="4"><circle cx="29" cy="29" r="29" stroke="none"/><circle cx="29" cy="29" r="27" fill="none"/></g></g></svg>