<svg xmlns="http://www.w3.org/2000/svg" width="169.999" height="184.5" viewBox="0 0 169.999 184.5"><path d="M76,185H55s11.25-5.662,19-24.912A153.258,153.258,0,0,0,80.47,138.4a44.718,44.718,0,0,1-35.184,17.1,44.864,44.864,0,0,1-.923-89.719l.783-.016-.344-.7a44.706,44.706,0,0,1-3.357-9.428,45.18,45.18,0,0,1-1.178-10.269,44.785,44.785,0,1,1,89.57,0,45.185,45.185,0,0,1-1.177,10.264,44.65,44.65,0,0,1-3.353,9.423l-.351.719h.8a44.864,44.864,0,1,1-23.616,83.017,45.011,45.011,0,0,1-10.211-8.7,147.339,147.339,0,0,0,6.073,20C105.75,179.339,117,185,117,185Z" transform="translate(-0.5 -0.5)"/></svg>