<svg xmlns="http://www.w3.org/2000/svg" width="153.752" height="272.5" viewBox="0 0 153.752 272.5"><g transform="translate(-155.083 -540.5)"><path d="M85.154,30H73.822L53.587,0H64.919L85.154,30ZM66.586,30H55.254L35.018,0H46.35L66.585,30ZM48.017,30H36.685L16.45,0H27.781L48.016,30ZM29.448,30H19.355L0,0H9.212L29.447,30Zm59.579-4.987h0L72.156,0H89.538L85.367,6.226,87.9,9.888,94.435,0h10.729L89.028,25.012Z" transform="translate(156.918 541.5)" stroke="#eccf5d" stroke-width="2"/><path d="M176,577h66a26.459,26.459,0,0,1,2,9,22.277,22.277,0,0,1-2,8.509A41.207,41.207,0,0,0,246.5,605a37.041,37.041,0,0,0,7.5,8.113l-12,4.377V635H219l-21.457-20.2L176,594.509Z" stroke="#eccf5d" stroke-width="2"/><path d="M176,599l46,43s-3.5,6-22-4-34.5,4-34.5,4V623a46.613,46.613,0,0,0,6.5-10.5A71.8,71.8,0,0,0,176,599Z" transform="translate(-2)" stroke="#eccf5d" stroke-width="2"/><g transform="translate(279 577)" stroke="#eccf5d" stroke-width="2"><circle cx="14" cy="14" r="14" stroke="none"/><circle cx="14" cy="14" r="13" fill="none"/></g><path d="M10,51.5H5.5L0,0,12.75,5.667,25.5,0,20,51.5Z" transform="translate(279.5 604.5)" stroke="#eccf5d" stroke-width="2"/><g transform="translate(123.071 640.499)"><path d="M 85.16481781005859 19.99970054626465 L 35.83567810058594 19.99970054626465 C 36.46619415283203 17.59823036193848 37.44411468505859 15.30950736999512 38.75058364868164 13.18084049224854 C 40.24524307250977 10.7455005645752 42.12529373168945 8.590120315551758 44.3385124206543 6.774550437927246 C 46.56977462768555 4.944170475006104 49.06954574584961 3.517390251159668 51.76840591430664 2.533830165863037 C 54.56118392944336 1.51606023311615 57.49885559082031 1.000000238418579 60.49980545043945 1.000000238418579 C 63.50094604492188 1.000000238418579 66.43877410888672 1.51606023311615 69.23167419433594 2.533840179443359 C 71.93060302734375 3.517370223999023 74.43047332763672 4.944150447845459 76.66183471679688 6.774560451507568 C 78.87509155273438 8.590109825134277 80.75518035888672 10.74549007415771 82.2498779296875 13.18084049224854 C 83.55637359619141 15.30951881408691 84.5343017578125 17.59822273254395 85.16481781005859 19.99970054626465 Z" stroke="none"/><path d="M 86.42752075195312 22.99970054626465 L 86.42813873291016 20.99982643127441 L 86.42752075195312 22.99970054626465 M 83.83206176757812 18.99970054626465 C 83.23792266845703 17.14834213256836 82.42316436767578 15.37489318847656 81.39759063720703 13.70392036437988 C 79.96129608154297 11.36371994018555 78.15457153320312 9.29246997833252 76.02760314941406 7.547710418701172 C 73.8836669921875 5.789010047912598 71.48198699951172 4.418210506439209 68.8892822265625 3.473400354385376 C 66.20643615722656 2.495720386505127 63.38380432128906 2.000000238418579 60.49980545043945 2.000000238418579 C 57.61599349975586 2.000000238418579 54.79353332519531 2.495720386505127 52.11081314086914 3.473390340805054 C 49.51818466186523 4.418230056762695 47.11659240722656 5.78902006149292 44.97274398803711 7.54770040512085 C 42.84583282470703 9.292460441589355 41.03914260864258 11.36371040344238 39.60286331176758 13.70392036437988 C 38.57735061645508 15.3748197555542 37.76255798339844 17.14841270446777 37.16842651367188 18.99970054626465 L 83.83206176757812 18.99970054626465 M 86.42875671386719 20.99970054626465 L 86.42752075195312 20.99970054626465 L 86.42875671386719 20.99970054626465 Z M 86.42875671386719 20.99970054626465 L 34.57173538208008 20.99970054626465 C 35.19576263427734 18.04319953918457 36.31531524658203 15.23696994781494 37.8983039855957 12.65775012969971 C 39.45135498046875 10.12728023529053 41.4047737121582 7.887760162353516 43.70428466796875 6.001410484313965 C 46.02296447753906 4.099310398101807 48.62093353271484 2.616540193557739 51.42600250244141 1.594280242919922 C 54.32885360717773 0.5363902449607849 57.3817253112793 2.731323149873788e-07 60.49980545043945 2.731323149873788e-07 C 63.61807250976562 2.731323149873788e-07 66.67109680175781 0.5363902449607849 69.57406616210938 1.594280242919922 C 72.37922668457031 2.616520166397095 74.97727203369141 4.099290370941162 77.29605102539062 6.001410484313965 C 79.59561157226562 7.887750148773193 81.549072265625 10.12727069854736 83.10215759277344 12.65775012969971 C 84.68561553955078 15.23768997192383 85.80474090576172 18.04392051696777 86.42850494384766 20.99848937988281 L 86.42875671386719 20.99970054626465 Z" stroke="none" fill="#eccf5d"/></g><g transform="translate(157 666)" stroke="#eccf5d" stroke-width="2"><rect width="150" height="9" stroke="none"/><rect x="1" y="1" width="148" height="7" fill="none"/></g><g transform="translate(277 659)" stroke="#eccf5d" stroke-width="2"><rect width="30" height="5" stroke="none"/><rect x="1" y="1" width="28" height="3" fill="none"/></g><path d="M215,661.5h54.5A8.178,8.178,0,0,0,262,656c-6-.333-18.212-.37-22.667-4-9-7.333-16.333-6.5-16.333-6.5a5.424,5.424,0,0,1-4,4c-3.5,1-10,0-10,0a58.864,58.864,0,0,1,4,6.5A24.382,24.382,0,0,1,215,661.5Z" stroke="#eccf5d" stroke-width="2"/><g transform="translate(156.918 678.5)"><path d="M85.154,30H73.822L53.587,0H64.919L85.154,30ZM66.586,30H55.254L35.018,0H46.35L66.585,30ZM48.017,30H36.685L16.45,0H27.781L48.016,30ZM29.448,30H19.355L0,0H9.212L29.447,30Zm59.579-4.987h0L72.156,0H89.538L85.367,6.226,87.9,9.888,94.435,0h10.729L89.028,25.012Z" transform="translate(150.082 133.5) rotate(180)" stroke="#eccf5d" stroke-width="2"/><path d="M254,635H188a26.459,26.459,0,0,1-2-9,22.277,22.277,0,0,1,2-8.509A41.207,41.207,0,0,0,183.5,607a37.041,37.041,0,0,0-7.5-8.113l12-4.377V577h23l21.457,20.2L254,617.491Z" transform="translate(-123 -537)" stroke="#eccf5d" stroke-width="2"/><path d="M211.5,643.785l-46-43s3.5-6,22,4,34.5-4,34.5-4v19a46.613,46.613,0,0,0-6.5,10.5A71.8,71.8,0,0,0,211.5,643.785Z" transform="translate(-78.5 -567.785)" stroke="#eccf5d" stroke-width="2"/><g transform="translate(0 70)" stroke="#eccf5d" stroke-width="2"><circle cx="14" cy="14" r="14" stroke="none"/><circle cx="14" cy="14" r="13" fill="none"/></g><path d="M10,51.5H5.5L0,0,12.75,5.667,25.5,0,20,51.5Z" transform="translate(27.5 70.5) rotate(180)" stroke="#eccf5d" stroke-width="2"/><g transform="translate(149.357 34.501) rotate(180)"><path d="M 50.59308242797852 19.99970054626465 L 1.263944983482361 19.99970054626465 C 1.894460678100586 17.59823036193848 2.872381210327148 15.30950736999512 4.178850650787354 13.18084049224854 C 5.673510551452637 10.7455005645752 7.553560733795166 8.590120315551758 9.766780853271484 6.774550437927246 C 11.99804019927979 4.944170475006104 14.49781036376953 3.517390251159668 17.19667053222656 2.533830165863037 C 19.98945045471191 1.51606023311615 22.92712020874023 1.000000238418579 25.92807006835938 1.000000238418579 C 28.9292106628418 1.000000238418579 31.86704063415527 1.51606023311615 34.65993881225586 2.533840179443359 C 37.35887145996094 3.517370223999023 39.85874176025391 4.944150447845459 42.0900993347168 6.774560451507568 C 44.30335998535156 8.590109825134277 46.18344879150391 10.74549007415771 47.67814254760742 13.18084049224854 C 48.98464202880859 15.30954456329346 49.96257019042969 17.59823608398438 50.59308242797852 19.99970054626465 Z" stroke="none"/><path d="M 51.85578918457031 22.99970054626465 L 51.85640716552734 20.99982643127441 L 51.85578918457031 22.99970054626465 M 49.26033020019531 18.99970054626465 C 48.66619491577148 17.14834785461426 47.85143280029297 15.37490749359131 46.82585906982422 13.70392036437988 C 45.38956069946289 11.36371994018555 43.58283996582031 9.29246997833252 41.45587158203125 7.547710418701172 C 39.31193161010742 5.789010047912598 36.91025161743164 4.418210506439209 34.31755065917969 3.473400354385376 C 31.63470077514648 2.495720386505127 28.81207084655762 2.000000238418579 25.92807006835938 2.000000238418579 C 23.04426002502441 2.000000238418579 20.22179985046387 2.495720386505127 17.53908157348633 3.473390340805054 C 14.94645023345947 4.418230056762695 12.54486083984375 5.78902006149292 10.40101051330566 7.54770040512085 C 8.274100303649902 9.292460441589355 6.467410564422607 11.36371040344238 5.031130790710449 13.70392036437988 C 4.005617141723633 15.3748197555542 3.190822839736938 17.14841270446777 2.596692323684692 18.99970054626465 L 49.26033020019531 18.99970054626465 M 51.85702133178711 20.99970054626465 L 51.85578918457031 20.99970054626465 L 51.85702133178711 20.99970054626465 Z M 51.85702133178711 20.99970054626465 L 6.658935376435693e-07 20.99970054626465 C 0.6240306496620178 18.04319953918457 1.74358069896698 15.23696994781494 3.326570749282837 12.65775012969971 C 4.879620552062988 10.12728023529053 6.833040714263916 7.887760162353516 9.132550239562988 6.001410484313965 C 11.45123100280762 4.099310398101807 14.04920101165771 2.616540193557739 16.85427093505859 1.594280242919922 C 19.75712013244629 0.5363902449607849 22.80998992919922 2.731323149873788e-07 25.92807006835938 2.731323149873788e-07 C 29.04634094238281 2.731323149873788e-07 32.09936141967773 0.5363902449607849 35.0023307800293 1.594280242919922 C 37.80749130249023 2.616520166397095 40.40554046630859 4.099290370941162 42.72431945800781 6.001410484313965 C 45.02388000488281 7.887750148773193 46.97734069824219 10.12727069854736 48.53042221069336 12.65775012969971 C 50.11387252807617 15.23768997192383 51.23300933837891 18.04392051696777 51.85676956176758 20.99848937988281 L 51.85702133178711 20.99970054626465 Z" stroke="none" fill="#eccf5d"/></g><g transform="translate(0)" stroke="#eccf5d" stroke-width="2"><rect width="150" height="9" stroke="none"/><rect x="1" y="1" width="148" height="7" fill="none"/></g><g transform="translate(0 11)" stroke="#eccf5d" stroke-width="2"><rect width="30" height="5" stroke="none"/><rect x="1" y="1" width="28" height="3" fill="none"/></g><path d="M263.5,645.471H209a8.178,8.178,0,0,0,7.5,5.5c6,.333,18.212.37,22.667,4,9,7.333,16.333,6.5,16.333,6.5a5.424,5.424,0,0,1,4-4c3.5-1,10,0,10,0a58.864,58.864,0,0,1-4-6.5A24.382,24.382,0,0,1,263.5,645.471Z" transform="translate(-171.5 -631.97)" stroke="#eccf5d" stroke-width="2"/></g></g></svg>