<svg xmlns="http://www.w3.org/2000/svg" width="159.445" height="294" viewBox="0 0 159.445 294"><g transform="translate(-740.461 -423)"><g transform="translate(742 559)" fill="#e61515" stroke="#eccf5d" stroke-width="2"><rect width="149" height="9" stroke="none"/><rect x="1" y="1" width="147" height="7" fill="none"/></g><g transform="translate(116.006 -210.022) rotate(14)"><g transform="translate(899 464)" fill="#e61515" stroke="#eccf5d" stroke-width="2"><circle cx="5.5" cy="5.5" r="5.5" stroke="none"/><circle cx="5.5" cy="5.5" r="4.5" fill="none"/></g><g transform="translate(899 476)" fill="#e61515"><path d="M 9.607850074768066 22.74993896484375 L 1.306132197380066 22.74993896484375 C 1.889809012413025 20.46658515930176 3 15.52817058563232 3 10.99999904632568 C 3 7.142999649047852 2.195288181304932 3.676464080810547 1.588670015335083 1.611249208450317 C 2.710186958312988 1.935129523277283 4.173707962036133 2.249999523162842 5.625 2.249999523162842 C 6.932105541229248 2.249999523162842 8.200945854187012 1.994906425476074 9.217449188232422 1.70661735534668 C 8.46220874786377 3.801227331161499 7.5 7.213071346282959 7.5 10.99999904632568 C 7.5 15.51580238342285 8.87058162689209 20.43210411071777 9.607850074768066 22.74993896484375 Z" stroke="none"/><path d="M 2.988008499145508 2.975896835327148 C 3.50321102142334 5.090751647949219 4 7.926743507385254 4 10.99999904632568 C 4 14.92227554321289 3.189241409301758 19.13514137268066 2.579166412353516 21.74993896484375 L 8.260348320007324 21.74993896484375 C 7.495265960693359 19.10554122924805 6.5 14.91340446472168 6.5 10.99999904632568 C 6.5 7.979123115539551 7.091089248657227 5.185880661010742 7.721138954162598 3.066753387451172 C 7.054291725158691 3.178253173828125 6.345272541046143 3.25 5.625 3.25 C 4.724248886108398 3.25 3.820811748504639 3.137481689453125 2.988008499145508 2.975896835327148 M 0 0 C 0 0 2.875 1.25 5.625 1.25 C 8.375 1.25 11 0 11 0 C 11 0 8.5 5.062519073486328 8.5 10.99999904632568 C 8.5 16.9374885559082 11 23.74993896484375 11 23.74993896484375 L 0 23.74993896484375 C 0 23.74993896484375 2 16.9374885559082 2 10.99999904632568 C 2 5.062519073486328 0 0 0 0 Z" stroke="none" fill="#eccf5d"/></g><path d="M886,482v56.5l-8-16.069L882,482Z" transform="translate(19 18)" fill="#e61515" stroke="#eccf5d" stroke-width="2"/><path d="M878,482v56.5l8-16.069L882,482Z" transform="translate(27 17.75)" fill="#e61515" stroke="#eccf5d" stroke-width="2"/><g transform="translate(888 497)" fill="#e61515"><path d="M 33 8.482097625732422 C 32.04787826538086 8.095735549926758 30.66462326049805 7.572215557098389 28.98683929443359 7.045849800109863 C 26.01192092895508 6.112539768218994 21.51744079589844 5 17 5 C 12.48256015777588 5 7.988080024719238 6.112539768218994 5.013160228729248 7.045849800109863 C 3.335376977920532 7.572215557098389 1.952122330665588 8.095735549926758 1 8.482097625732422 L 1 1 L 33 1 L 33 8.482097625732422 Z" stroke="none"/><path d="M 2 2 L 2 7.01768159866333 C 5.328128814697266 5.77653169631958 11.11910247802734 4 17 4 C 22.88089752197266 4 28.67187118530273 5.77653169631958 32 7.01768159866333 L 32 2 L 2 2 M 0 0 L 34 0 L 34 10 C 34 10 25.5 6 17 6 C 8.5 6 0 10 0 10 L 0 0 Z" stroke="none" fill="#eccf5d"/></g></g><g transform="translate(-20)"><g transform="translate(764 441)" fill="#e61515"><path d="M 86.97498321533203 33 L 22.9987964630127 33 L 7.9149489402771 9.227514266967773 C 9.473552703857422 10.21671009063721 11.58018207550049 11.70046615600586 14.21169376373291 13.87652015686035 C 20.68129348754883 19.22638702392578 25.40853309631348 22.30826759338379 25.45552062988281 22.33877372741699 L 26.26836013793945 22.86641311645508 L 26.82126617431641 22.07054710388184 C 26.92418670654297 21.92239952087402 29.35067939758301 18.36318588256836 30.10489273071289 11.49903964996338 C 30.4651985168457 8.219939231872559 30.44221687316895 4.22133207321167 30.3200798034668 0.9408920407295227 C 31.60421180725098 3.970117807388306 33.31875610351562 7.698030471801758 35.20033264160156 10.93430709838867 C 39.11538696289062 17.66810607910156 43.61658477783203 22.03753280639648 43.80627822875977 22.22025299072266 L 44.61957168579102 23.00357246398926 L 45.298828125 22.10156059265137 C 45.44935989379883 21.90166664123535 49.01585388183594 17.11474609375 51.66205215454102 9.176119804382324 C 53.12485885620117 4.787711143493652 54.29705810546875 -0.5923383831977844 55.05043411254883 -4.510418891906738 C 55.8930778503418 -0.5018354058265686 57.19388198852539 5.042972087860107 58.74382781982422 9.481452941894531 C 61.5179328918457 17.42547988891602 65.06796264648438 21.93485260009766 65.21772003173828 22.12293243408203 L 65.86387634277344 22.93437385559082 L 66.65114593505859 22.25896072387695 C 66.84425354003906 22.09328079223633 71.43110656738281 18.12508010864258 75.81194305419922 11.50148010253906 C 77.87832641601562 8.377246856689453 79.89459228515625 4.647598266601562 81.44644165039062 1.582862854003906 C 80.93525695800781 5.412246704101562 80.41683959960938 10.13755226135254 80.41683959960938 13.55246639251709 C 80.41683959960938 16.4192008972168 80.78060150146484 18.71956062316895 81.49802398681641 20.38968086242676 C 82.06855773925781 21.71784019470215 82.67964172363281 22.20763969421387 82.85334777832031 22.32612037658691 L 83.35093688964844 22.66551971435547 L 83.88361358642578 22.38437271118164 C 84.00466918945312 22.32048034667969 86.92475891113281 20.75777244567871 93.56997680664062 15.38323974609375 C 96.25726318359375 13.20980644226074 98.50363159179688 11.4651050567627 100.2201309204102 10.16207027435303 L 86.97498321533203 33 Z" stroke="none"/><path d="M 55.08924865722656 0.2686691284179688 C 54.41606521606445 3.293197631835938 53.58032989501953 6.583578109741211 52.61074447631836 9.492342948913574 C 49.91348648071289 17.58409881591797 46.25220108032227 22.49790000915527 46.09765625 22.7031135559082 L 44.73912811279297 24.50714302062988 L 43.11257171630859 22.94050025939941 C 42.91875457763672 22.75382804870605 38.32028198242188 18.29008483886719 34.33583068847656 11.43694305419922 C 33.29027557373047 9.638608932495117 32.29596710205078 7.691099166870117 31.39725494384766 5.794214248657227 C 31.38127136230469 7.789604187011719 31.29707336425781 9.804712295532227 31.09889984130859 11.60825729370117 C 30.3172607421875 18.7221565246582 27.75137329101562 22.48441505432129 27.64253234863281 22.64109992980957 L 26.53671264648438 24.23282814025879 L 24.91104125976562 23.17755699157715 C 24.71718597412109 23.05171394348145 20.08840179443359 20.03371429443359 13.57444000244141 14.64715671539307 C 12.82968902587891 14.03130340576172 12.12849426269531 13.47237682342529 11.47095489501953 12.96536445617676 L 23.54859924316406 32 L 86.39894104003906 32 L 96.78494262695312 14.09194946289062 C 95.97660064697266 14.73130512237549 95.1134033203125 15.42106437683105 94.19881439208984 16.16077041625977 C 87.47864532470703 21.59592819213867 84.4749755859375 23.20299911499023 84.35040283203125 23.26874351501465 L 83.28504180908203 23.83105659484863 L 82.28985595703125 23.15224266052246 C 81.61587524414062 22.69251441955566 79.41683959960938 20.64161491394043 79.41683959960938 13.55247116088867 C 79.41683959960938 11.58309936523438 79.58620452880859 9.188580513000488 79.82708740234375 6.778959274291992 C 78.8262939453125 8.571507453918457 77.74737548828125 10.38796710968018 76.64602661132812 12.05314254760742 C 72.18907165527344 18.79182815551758 67.49972534179688 22.84851455688477 67.30228424072266 23.01791381835938 L 65.72776794433594 24.3687572479248 L 64.43545532226562 22.74587059020996 C 64.2813720703125 22.55237197875977 60.62919998168945 17.91371536254883 57.79972839355469 9.811142921447754 C 56.75819778442383 6.828582763671875 55.8374137878418 3.405609130859375 55.08924865722656 0.2686691284179688 M 55 -10 C 55 -10 56.93791580200195 1.276771545410156 59.68791580200195 9.151771545410156 C 62.43791580200195 17.02677154541016 66 21.5 66 21.5 C 66 21.5 70.62367248535156 17.53315734863281 74.97789001464844 10.94982814788818 C 79.33208465576172 4.366500854492188 83.41683959960938 -4.83329963684082 83.41683959960938 -4.83329963684082 C 83.41683959960938 -4.83329963684082 81.41683959960938 6.969142913818359 81.41683959960938 13.55247116088867 C 81.41683959960938 20.13579940795898 83.41683959960938 21.5 83.41683959960938 21.5 C 83.41683959960938 21.5 86.29532623291016 19.98071479797363 92.94111633300781 14.60571384429932 C 99.58689880371094 9.230713844299316 103.5 6.5 103.5 6.5 L 87.551025390625 34 L 22.44898223876953 34 L 5 6.5 C 5 6.5 8.348968505859375 7.730871200561523 14.84896850585938 13.10587120056152 C 21.34896850585938 18.48087120056152 26 21.5 26 21.5 C 26 21.5 28.37574005126953 18.08028602600098 29.11087036132812 11.38981437683105 C 29.84601593017578 4.699329376220703 28.94052886962891 -5.26191520690918 28.94052886962891 -5.26191520690918 C 28.94052886962891 -5.26191520690918 32.17497253417969 3.741199493408203 36.06484222412109 10.43168544769287 C 39.9547119140625 17.12215805053711 44.5 21.5 44.5 21.5 C 44.5 21.5 48.08837127685547 16.73488616943359 50.71337127685547 8.859886169433594 C 53.33837127685547 0.9848861694335938 55 -10 55 -10 Z" stroke="none" fill="#eccf5d"/></g><g transform="translate(816 423)" fill="#e61515" stroke="#eccf5d" stroke-width="1"><circle cx="3.5" cy="3.5" r="3.5" stroke="none"/><circle cx="3.5" cy="3.5" r="3" fill="none"/></g><g transform="translate(845 429)" fill="#e61515" stroke="#eccf5d" stroke-width="1"><circle cx="3.5" cy="3.5" r="3.5" stroke="none"/><circle cx="3.5" cy="3.5" r="3" fill="none"/></g><g transform="translate(867 440)" fill="#e61515" stroke="#eccf5d" stroke-width="1"><circle cx="3.5" cy="3.5" r="3.5" stroke="none"/><circle cx="3.5" cy="3.5" r="3" fill="none"/></g><g transform="translate(789 429)" fill="#e61515" stroke="#eccf5d" stroke-width="1"><circle cx="3.5" cy="3.5" r="3.5" stroke="none"/><circle cx="3.5" cy="3.5" r="3" fill="none"/></g><g transform="translate(764 440)" fill="#e61515" stroke="#eccf5d" stroke-width="1"><circle cx="3.5" cy="3.5" r="3.5" stroke="none"/><circle cx="3.5" cy="3.5" r="3" fill="none"/></g><path d="M768,458h63.5a24.091,24.091,0,0,1,1,6.294,23.022,23.022,0,0,1-1,6.206s2.576,2.908,4.951,5.783S841,482,841,482l-9.5,3.5V498h-34L768,473Z" transform="translate(19 20)" fill="#e61515" stroke="#eccf5d" stroke-width="2"/><path d="M78.185,42.008H69.893l-5.6-12h8.39l5.5,12Zm-12.707,0H57.612l-5.6-12h7.868l5.594,12Zm-12.281,0H45.211l-5.6-12H47.6l5.594,12Zm-12.4,0H33.242L24.551,23.371c.06-1.932.216-3.045.462-3.308A.174.174,0,0,1,25.138,20a.154.154,0,0,1,.049.008c.913.305,5.183,3.962,8.6,6.976l7,15.023Zm-11.968,0H25.187l0-.037c-.066-1.024-.3-4.684-.467-8.782l4.112,8.818Z" transform="translate(777.814 491.991)" fill="#e61515" stroke="#eccf5d" stroke-width="2"/><path d="M765.5,476.5s-1.5,10.5-7,19-15,15-15,15,4.75,2.125,5.5,5-2.5,6.5-2.5,6.5,6,8.5,16,2,26-2,26-2-8.625-2.625-11.5-11.5v-24Z" transform="translate(19 20)" fill="#e61515" stroke="#eccf5d" stroke-width="2"/><g transform="translate(741 524)" fill="#e61515"><path d="M 77.25154113769531 32.00030136108398 L 32.74826812744141 32.00030136108398 C 38.03690338134766 25.07842063903809 46.22052383422852 20.99979972839355 54.99990081787109 20.99979972839355 C 63.77921676635742 20.99979972839355 71.96293640136719 25.07842445373535 77.25154113769531 32.00030136108398 Z" stroke="none"/><path d="M 75.12832641601562 31.00029945373535 C 70.04082489013672 25.30643844604492 62.76136779785156 21.99979972839355 54.99990081787109 21.99979972839355 C 47.23786926269531 21.99979972839355 39.95904159545898 25.30575942993164 34.87147521972656 31.00029945373535 L 75.12832641601562 31.00029945373535 M 79.19056701660156 33.00030136108398 L 30.80923080444336 33.00030136108398 C 36.20402908325195 24.85922050476074 45.24758148193359 19.99979972839355 54.99990081787109 19.99979972839355 C 64.75221252441406 19.99979972839355 73.79507446289062 24.85922050476074 79.18953704833984 32.99874877929688 L 79.19056701660156 33.00030136108398 Z" stroke="none" fill="#eccf5d"/></g><path d="M796,526.194a30.232,30.232,0,0,1,5.5,3.889,25.305,25.305,0,0,1,4,4.972H860l-16.25-8.86s-10.452,5.377-21.226,0S796,526.194,796,526.194Z" transform="translate(21 21.195)" fill="#e61515" stroke="#eccf5d" stroke-width="2"/></g><g transform="translate(742 572)"><g transform="translate(7.367)" fill="#e61515" stroke="#eccf5d" stroke-width="2"><rect width="149" height="9" stroke="none"/><rect x="1" y="1" width="147" height="7" fill="none"/></g><g transform="translate(32.99 112.978) rotate(-166)"><g transform="translate(11 0)" fill="#e61515" stroke="#eccf5d" stroke-width="2"><circle cx="5.5" cy="5.5" r="5.5" stroke="none"/><circle cx="5.5" cy="5.5" r="4.5" fill="none"/></g><g transform="translate(11 12)" fill="#e61515"><path d="M 9.607850074768066 22.74993896484375 L 1.306132197380066 22.74993896484375 C 1.889809012413025 20.46658515930176 3 15.52817058563232 3 10.99999904632568 C 3 7.142999649047852 2.195288181304932 3.676464080810547 1.588670015335083 1.611249208450317 C 2.710186958312988 1.935129523277283 4.173707962036133 2.249999523162842 5.625 2.249999523162842 C 6.932105541229248 2.249999523162842 8.200945854187012 1.994906425476074 9.217449188232422 1.70661735534668 C 8.46220874786377 3.801227331161499 7.5 7.213071346282959 7.5 10.99999904632568 C 7.5 15.51580238342285 8.87058162689209 20.43210411071777 9.607850074768066 22.74993896484375 Z" stroke="none"/><path d="M 2.988008499145508 2.975896835327148 C 3.50321102142334 5.090751647949219 4 7.926743507385254 4 10.99999904632568 C 4 14.92227554321289 3.189241409301758 19.13514137268066 2.579166412353516 21.74993896484375 L 8.260348320007324 21.74993896484375 C 7.495265960693359 19.10554122924805 6.5 14.91340446472168 6.5 10.99999904632568 C 6.5 7.979123115539551 7.091089248657227 5.185880661010742 7.721138954162598 3.066753387451172 C 7.054291725158691 3.178253173828125 6.345272541046143 3.25 5.625 3.25 C 4.724248886108398 3.25 3.820811748504639 3.137481689453125 2.988008499145508 2.975896835327148 M 0 0 C 0 0 2.875 1.25 5.625 1.25 C 8.375 1.25 11 0 11 0 C 11 0 8.5 5.062519073486328 8.5 10.99999904632568 C 8.5 16.9374885559082 11 23.74993896484375 11 23.74993896484375 L 0 23.74993896484375 C 0 23.74993896484375 2 16.9374885559082 2 10.99999904632568 C 2 5.062519073486328 0 0 0 0 Z" stroke="none" fill="#eccf5d"/></g><path d="M8,0V56.5L0,40.431,4,0Z" transform="translate(9 36)" fill="#e61515" stroke="#eccf5d" stroke-width="2"/><path d="M0,0V56.5L8,40.431,4,0Z" transform="translate(17 35.75)" fill="#e61515" stroke="#eccf5d" stroke-width="2"/><g transform="translate(0 33)" fill="#e61515"><path d="M 33 8.482097625732422 C 32.04787826538086 8.095735549926758 30.66462326049805 7.572215557098389 28.98683929443359 7.045849800109863 C 26.01192092895508 6.112539768218994 21.51744079589844 5 17 5 C 12.48256015777588 5 7.988080024719238 6.112539768218994 5.013160228729248 7.045849800109863 C 3.335376977920532 7.572215557098389 1.952122330665588 8.095735549926758 1 8.482097625732422 L 1 1 L 33 1 L 33 8.482097625732422 Z" stroke="none"/><path d="M 2 2 L 2 7.01768159866333 C 5.328128814697266 5.77653169631958 11.11910247802734 4 17 4 C 22.88089752197266 4 28.67187118530273 5.77653169631958 32 7.01768159866333 L 32 2 L 2 2 M 0 0 L 34 0 L 34 10 C 34 10 25.5 6 17 6 C 8.5 6 0 10 0 10 L 0 0 Z" stroke="none" fill="#eccf5d"/></g></g><g transform="translate(37.367 11)"><g transform="translate(8.5 92)" fill="#e61515"><path d="M 53.44956588745117 28.51041984558105 C 52.6069221496582 24.50183486938477 51.30611801147461 18.95702743530273 49.75617218017578 14.51854705810547 C 46.9820671081543 6.574520111083984 43.43204116821289 2.065146684646606 43.28227996826172 1.877066612243652 L 42.6361083984375 1.065626621246338 L 41.84885406494141 1.741039991378784 C 41.65574645996094 1.906733274459839 37.06889343261719 5.874933242797852 32.68805313110352 12.49851989746094 C 30.62167549133301 15.62275314331055 28.60540580749512 19.35240173339844 27.05355644226074 22.41713714599609 C 27.56474304199219 18.58775329589844 28.08316040039062 13.86244773864746 28.08316040039062 10.44753360748291 C 28.08316040039062 7.58080005645752 27.71940040588379 5.280439853668213 27.00197410583496 3.610320091247559 C 26.43144035339355 2.282160043716431 25.82036018371582 1.792359948158264 25.64665412902832 1.673879981040955 L 25.14906692504883 1.334466695785522 L 24.61638641357422 1.615626692771912 C 24.49533271789551 1.679520010948181 21.57525253295898 3.242226600646973 14.93002700805664 8.61674690246582 C 12.24273777008057 10.79018592834473 9.996369361877441 12.53488826751709 8.27987003326416 13.83792495727539 L 21.52501487731934 -9 L 85.50120544433594 -9 L 100.5850601196289 14.77249431610107 C 99.02645111083984 13.78329849243164 96.91980743408203 12.29953384399414 94.28829193115234 10.12347984313965 C 87.81869506835938 4.773613452911377 83.09146881103516 1.691733360290527 83.04447937011719 1.661226630210876 L 82.23164367675781 1.133586645126343 L 81.67873382568359 1.929453372955322 C 81.57581329345703 2.077600002288818 79.14932250976562 5.636813163757324 78.39510345458984 12.50096035003662 C 78.03480529785156 15.78006076812744 78.05778503417969 19.77867126464844 78.17991638183594 23.05911445617676 C 76.89579010009766 20.02988433837891 75.18124389648438 16.30196952819824 73.29966735839844 13.06569290161133 C 69.38461303710938 6.331893444061279 64.88341522216797 1.962466716766357 64.69371795654297 1.779746651649475 L 63.88042831420898 0.9964266419410706 L 63.201171875 1.898440003395081 C 63.05064010620117 2.098333358764648 59.48414611816406 6.885253429412842 56.83794784545898 14.82388019561768 C 55.37514114379883 19.21228981018066 54.20294189453125 24.59233856201172 53.44956588745117 28.51041984558105 Z" stroke="none"/><path d="M 53.41075134277344 23.73133087158203 C 54.08393478393555 20.70680236816406 54.91967010498047 17.41642189025879 55.88925552368164 14.50765705108643 C 58.58651351928711 6.415900230407715 62.24779891967773 1.502099990844727 62.40234375 1.29688572883606 L 63.76087188720703 -0.5071428418159485 L 65.38742828369141 1.059499979019165 C 65.58124542236328 1.246171474456787 70.17971801757812 5.709914207458496 74.16416931152344 12.56305694580078 C 75.20972442626953 14.36139106750488 76.20403289794922 16.30890083312988 77.10274505615234 18.20578575134277 C 77.11872863769531 16.21039581298828 77.20292663574219 14.19528770446777 77.40110015869141 12.39174270629883 C 78.1827392578125 5.277842998504639 80.74862670898438 1.515585660934448 80.85746765136719 1.35889995098114 L 81.96328735351562 -0.2328285723924637 L 83.58895874023438 0.8224428296089172 C 83.78281402587891 0.948285698890686 88.41159820556641 3.966285705566406 94.92555999755859 9.352843284606934 C 95.67031097412109 9.968696594238281 96.37150573730469 10.52762317657471 97.02904510498047 11.03463554382324 L 84.95140075683594 -8 L 22.10105895996094 -8 L 11.71505832672119 9.908050537109375 C 12.52339744567871 9.268694877624512 13.38659381866455 8.578935623168945 14.30118560791016 7.839228630065918 C 21.0213565826416 2.40407133102417 24.02502822875977 0.796999990940094 24.14959907531738 0.7312571406364441 L 25.21495628356934 0.168942853808403 L 26.21014213562012 0.8477571606636047 C 26.88412857055664 1.307485699653625 29.08315658569336 3.358385801315308 29.08315658569336 10.44752883911133 C 29.08315658569336 12.41690063476562 28.91379737854004 14.81141948699951 28.67291450500488 17.22104072570801 C 29.67370414733887 15.42849254608154 30.75262832641602 13.61203289031982 31.85397148132324 11.94685745239258 C 36.31092834472656 5.208171367645264 41.00027084350586 1.151485681533813 41.19771575927734 0.9820857048034668 L 42.7722282409668 -0.3687571287155151 L 44.06454467773438 1.254128575325012 C 44.2186279296875 1.447628617286682 47.87080001831055 6.086285591125488 50.70027160644531 14.18885707855225 C 51.74180221557617 17.17141723632812 52.6625862121582 20.59439086914062 53.41075134277344 23.73133087158203 M 53.5 34 C 53.5 34 51.56208419799805 22.72322845458984 48.81208419799805 14.84822845458984 C 46.06208419799805 6.973228454589844 42.5 2.5 42.5 2.5 C 42.5 2.5 37.87632751464844 6.466842651367188 33.52211380004883 13.05017185211182 C 29.16791343688965 19.63349914550781 25.08315658569336 28.83329963684082 25.08315658569336 28.83329963684082 C 25.08315658569336 28.83329963684082 27.08315658569336 17.03085708618164 27.08315658569336 10.44752883911133 C 27.08315658569336 3.864200115203857 25.08315658569336 2.5 25.08315658569336 2.5 C 25.08315658569336 2.5 22.20467185974121 4.019285678863525 15.55888557434082 9.394286155700684 C 8.913100242614746 14.76928615570068 5 17.5 5 17.5 L 20.94897079467773 -10 L 86.05101776123047 -10 L 103.5 17.5 C 103.5 17.5 100.1510314941406 16.26912879943848 93.65103149414062 10.89412879943848 C 87.15103149414062 5.519128799438477 82.5 2.5 82.5 2.5 C 82.5 2.5 80.12425994873047 5.919714450836182 79.38912963867188 12.61018562316895 C 78.65398406982422 19.3006706237793 79.55947113037109 29.26191520690918 79.55947113037109 29.26191520690918 C 79.55947113037109 29.26191520690918 76.32502746582031 20.2588005065918 72.43515777587891 13.56831455230713 C 68.5452880859375 6.877842903137207 64 2.5 64 2.5 C 64 2.5 60.41162872314453 7.265114307403564 57.78662872314453 15.14011383056641 C 55.16162872314453 23.01511383056641 53.5 34 53.5 34 Z" stroke="none" fill="#eccf5d"/></g><g transform="translate(58 127)" fill="#e61515" stroke="#eccf5d" stroke-width="1"><circle cx="3.5" cy="3.5" r="3.5" stroke="none"/><circle cx="3.5" cy="3.5" r="3" fill="none"/></g><g transform="translate(29 121)" fill="#e61515" stroke="#eccf5d" stroke-width="1"><circle cx="3.5" cy="3.5" r="3.5" stroke="none"/><circle cx="3.5" cy="3.5" r="3" fill="none"/></g><g transform="translate(7 110)" fill="#e61515" stroke="#eccf5d" stroke-width="1"><circle cx="3.5" cy="3.5" r="3.5" stroke="none"/><circle cx="3.5" cy="3.5" r="3" fill="none"/></g><g transform="translate(85 121)" fill="#e61515" stroke="#eccf5d" stroke-width="1"><circle cx="3.5" cy="3.5" r="3.5" stroke="none"/><circle cx="3.5" cy="3.5" r="3" fill="none"/></g><g transform="translate(110 110)" fill="#e61515" stroke="#eccf5d" stroke-width="1"><circle cx="3.5" cy="3.5" r="3.5" stroke="none"/><circle cx="3.5" cy="3.5" r="3" fill="none"/></g><path d="M841,498H777.5a24.091,24.091,0,0,1-1-6.294,23.022,23.022,0,0,1,1-6.206s-2.576-2.908-4.951-5.783S768,474,768,474l9.5-3.5V458h34L841,483Z" transform="translate(-747 -419)" fill="#e61515" stroke="#eccf5d" stroke-width="2"/><path d="M53.634,22.009H45.342l-5.6-12h8.39l5.5,12Zm-12.707,0H33.06l-5.6-12h7.868l5.594,12Zm-12.281,0H20.659l-5.6-12h7.987l5.594,12Zm-12.4,0H8.691L0,3.371C.06,1.439.216.326.462.063A.174.174,0,0,1,.587,0,.154.154,0,0,1,.635.008c.913.305,5.183,3.962,8.6,6.976l7,15.023Zm-11.968,0H.635l0-.037c-.066-1.024-.3-4.684-.467-8.782l4.112,8.818Z" transform="translate(78.635 45.009) rotate(180)" fill="#e61515" stroke="#eccf5d" stroke-width="2"/><path d="M766.5,526.448s1.5-10.5,7-19,15-15,15-15-4.75-2.125-5.5-5,2.5-6.5,2.5-6.5-6-8.5-16-2-26,2-26,2,8.625,2.625,11.5,11.5v24Z" transform="translate(-670 -465.948)" fill="#e61515" stroke="#eccf5d" stroke-width="2"/><g transform="translate(109.191 13.001) rotate(180)" fill="#e61515"><path d="M 46.44230651855469 12.00050067901611 L 1.939036011695862 12.00050067901611 C 7.227668762207031 5.078622817993164 15.41129112243652 1.000000834465027 24.1906681060791 1.000000834465027 C 32.96998596191406 1.000000834465027 41.15370559692383 5.078625202178955 46.44230651855469 12.00050067901611 Z" stroke="none"/><path d="M 44.31909561157227 11.00050067901611 C 39.23159027099609 5.306640148162842 31.95213508605957 2.000000715255737 24.1906681060791 2.000000715255737 C 16.42863845825195 2.000000715255737 9.149809837341309 5.305961132049561 4.062243461608887 11.00050067901611 L 44.31909561157227 11.00050067901611 M 48.3813362121582 13.00050067901611 L -1.893920853035524e-06 13.00050067901611 C 5.394798278808594 4.859420776367188 14.43834781646729 8.163452207554656e-07 24.1906681060791 8.163452207554656e-07 C 33.94297790527344 8.163452207554656e-07 42.98583984375 4.859420776367188 48.38030624389648 12.99895095825195 L 48.3813362121582 13.00050067901611 Z" stroke="none" fill="#eccf5d"/></g><path d="M860,532.665a30.232,30.232,0,0,1-5.5-3.889,25.305,25.305,0,0,1-4-4.972H796l16.25,8.86s10.452-5.377,21.226,0S860,532.665,860,532.665Z" transform="translate(-796 -523.054)" fill="#e61515" stroke="#eccf5d" stroke-width="2"/></g></g></g></svg>