<svg xmlns="http://www.w3.org/2000/svg" width="151.662" height="272" viewBox="0 0 151.662 272"><g transform="translate(-68.169 -726)"><g transform="translate(1 5)"><g transform="translate(-21.082 7.5)"><g transform="translate(90.919 713.5)"><path d="M 62.84499740600586 50.00029754638672 L 53.96471786499023 50.00029754638672 L 38.19377899169922 26.61792755126953 C 40.50001907348633 25.73788452148438 42.76930618286133 24.69010353088379 44.96478271484375 23.49143981933594 L 62.84499740600586 50.00029754638672 Z M 46.7276725769043 50.00029754638672 L 37.94111251831055 50.00029754638672 L 24.44216346740723 29.98797225952148 C 27.32197570800781 29.56606864929199 29.93293952941895 29.06571578979492 32.22265243530273 28.49651336669922 L 46.7276725769043 50.00029754638672 Z M 30.70408630371094 50.00029754638672 L 22.1821231842041 50.00029754638672 L 9.556285858154297 31.33807563781738 C 11.7919282913208 31.23797607421875 14.65155696868896 31.06811332702637 17.73992156982422 30.78057861328125 L 30.70408630371094 50.00029754638672 Z M 70.08229064941406 50.000244140625 L 50.06338119506836 20.32161903381348 C 50.99798202514648 19.66066932678223 51.70738220214844 19.10767364501953 52.16614151000977 18.73530769348145 C 53.35404205322266 19.46703720092773 55.5919303894043 20.78077125549316 58.58074569702148 22.24671363830566 C 62.56154632568359 24.20068550109863 68.79143524169922 26.86758422851562 75.86245727539062 28.47551345825195 C 82.91227722167969 30.07822036743164 90.76876068115234 30.83002853393555 96.63412475585938 31.18243408203125 L 83.90460205078125 49.99879837036133 L 70.08229064941406 50.000244140625 Z M 4.64507532119751 24.07808685302734 L 1.848742008209229 19.94513511657715 C 3.852662086486816 19.8680362701416 7.245718002319336 19.68824005126953 11.26221752166748 19.27556991577148 C 17.15146064758301 18.67118453979492 25.60398864746094 17.4283561706543 32.42676162719727 14.93987083435059 C 39.29254531860352 12.4355993270874 44.47813034057617 8.683384895324707 47.61928939819336 5.97664213180542 C 49.82689666748047 4.074703693389893 51.38954544067383 2.372918605804443 52.21154022216797 1.416477203369141 C 53.32605743408203 2.335353374481201 55.49247360229492 4.046902656555176 58.46223068237305 6.048356533050537 C 62.44827651977539 8.73398494720459 68.68348693847656 12.45722770690918 75.75237274169922 14.94375610351562 C 82.816162109375 17.42837142944336 90.68096160888672 18.67022705078125 96.03484344482422 19.27449989318848 C 99.56256866455078 19.67248344421387 102.4715728759766 19.85408210754395 104.2399444580078 19.93576622009277 L 101.4608993530273 24.04771423339844 C 95.72634124755859 23.71869659423828 85.34758758544922 22.79847145080566 76.35569000244141 20.26225662231445 C 69.46875762939453 18.32034301757812 63.38637542724609 15.40664196014404 59.49657440185547 13.30428504943848 C 55.402099609375 11.09199619293213 52.84394073486328 9.311613082885742 52.67562866210938 9.193583488464355 L 51.91328811645508 8.614142417907715 L 51.32966613769531 9.342002868652344 C 51.03370666503906 9.645055770874023 49.34883499145508 11.32290554046631 46.39813232421875 13.36124229431152 C 43.37914657592773 15.44568538665771 38.39623260498047 18.33559989929199 31.80324554443359 20.26495552062988 C 22.92547607421875 22.86141586303711 11.20037078857422 23.76586151123047 4.64507532119751 24.07808685302734 Z" stroke="none"/><path d="M 60.96428680419922 49.00029373168945 L 44.64078140258789 24.79936599731445 C 43.03195571899414 25.64456367492676 41.38651657104492 26.41062164306641 39.7189826965332 27.09088325500488 L 54.49644470214844 49.00029373168945 L 60.96428680419922 49.00029373168945 M 44.84687805175781 49.00029373168945 L 31.78245544433594 29.63216400146484 C 30.06414222717285 30.03841209411621 28.18102836608887 30.40760040283203 26.15302276611328 30.7360897064209 L 38.47281265258789 49.00029373168945 L 44.84687805175781 49.00029373168945 M 28.82331848144531 49.00029373168945 L 17.24165725708008 31.83012771606445 C 15.12337303161621 32.01906967163086 13.12576484680176 32.15336608886719 11.37969589233398 32.24868392944336 L 22.71292495727539 49.00029373168945 L 28.82331848144531 49.00029373168945 M 70.61395263671875 49.00018310546875 L 83.37372589111328 48.99885177612305 L 94.82807159423828 32.06741714477539 C 89.16320037841797 31.67305374145508 82.07503509521484 30.91339874267578 75.64071655273438 29.45061874389648 C 68.47551727294922 27.82126426696777 62.16880798339844 25.12187957763672 58.1403923034668 23.14454078674316 C 55.56208801269531 21.87993621826172 53.53237533569336 20.72512054443359 52.24224090576172 19.95155715942383 C 52.00574493408203 20.13559532165527 51.73563003540039 20.34132194519043 51.43359375 20.56471252441406 L 70.61395263671875 49.00018310546875 M 5.158000469207764 23.05166816711426 C 11.75826930999756 22.71755218505859 22.98959159851074 21.80076599121094 31.52239227294922 19.30521774291992 C 37.9875602722168 17.41324806213379 42.87149810791016 14.58098697662354 45.82977676391602 12.53844833374023 C 48.605712890625 10.62086582183838 50.25568771362305 9.005006790161133 50.58226013183594 8.675649642944336 L 51.74300765991211 7.229556560516357 L 53.26412582397461 8.384847640991211 C 53.50490951538086 8.552412986755371 56.04074096679688 10.30043697357178 59.97206878662109 12.42454147338867 C 63.81734466552734 14.50286388397217 69.82819366455078 17.38269424438477 76.62712860107422 19.29981803894043 C 85.24086761474609 21.72936248779297 95.16131591796875 22.66211700439453 100.9513549804688 23.01577377319336 L 102.4230651855469 20.83821296691895 C 100.7053375244141 20.73148918151855 98.47293853759766 20.5558910369873 95.92268371582031 20.26818656921387 C 90.51742553710938 19.65812492370605 82.57280731201172 18.40283393859863 75.4205322265625 15.88709449768066 C 68.25194549560547 13.36549472808838 61.93800735473633 9.595972061157227 57.90336227416992 6.877617835998535 C 55.4697151184082 5.237452983856201 53.56536865234375 3.786418914794922 52.327880859375 2.798107862472534 C 51.41678237915039 3.802758932113647 50.05480575561523 5.19831371307373 48.27206802368164 6.734218120574951 C 45.06772994995117 9.49537181854248 39.77706909179688 13.32330989837646 32.7694206237793 15.87934112548828 C 25.85003662109375 18.40304946899414 17.30997657775879 19.66017150878906 11.36442184448242 20.27032470703125 C 8.346776008605957 20.58036994934082 5.677233695983887 20.75988578796387 3.677360773086548 20.86330604553223 L 5.158000469207764 23.05166816711426 M 84.43441009521484 51.00029373168945 L 84.43276214599609 50.99918746948242 L 84.43305206298828 50.99874114990234 L 69.55062103271484 51.00029373168945 L 48.68168258666992 20.06144905090332 C 50.67785263061523 18.71089553833008 51.86374664306641 17.69271087646484 52.08120727539062 17.50229454040527 L 52.12260818481445 17.52840232849121 C 53.01854705810547 18.09920310974121 55.48428344726562 19.61415672302246 59.02111434936523 21.34890937805176 C 62.95433044433594 23.27951049804688 69.10739135742188 25.91389465332031 76.08419036865234 27.50040245056152 C 83.79913330078125 29.25432586669922 92.50566864013672 29.9808177947998 98.45100402832031 30.28141784667969 L 84.43441009521484 51.00029373168945 Z M 64.72571563720703 51.00029373168945 L 53.43300628662109 51.00029373168945 L 36.65160751342773 26.11980247497559 C 39.60206985473633 25.07471084594727 42.50506973266602 23.74669456481934 45.28048324584961 22.17117118835449 L 64.72571563720703 51.00029373168945 Z M 48.60810089111328 51.00029373168945 L 37.40940856933594 51.00029373168945 L 22.71689987182617 29.21850967407227 C 26.23676109313965 28.75350952148438 29.38809967041016 28.17598724365234 32.08411407470703 27.50040245056152 C 32.29397583007812 27.44794082641602 32.48149871826172 27.3996639251709 32.65742111206055 27.35280227661133 L 48.60810089111328 51.00029373168945 Z M 32.58451461791992 51.00029373168945 L 21.65129852294922 51.00029373168945 L 7.721098899841309 30.41011047363281 C 10.18445301055908 30.32523345947266 14.0076379776001 30.13969421386719 18.23671531677246 29.72880172729492 L 32.58451461791992 51.00029373168945 Z M 4.131898880004883 25.10280227661133 L 4.131006717681885 25.10280227661133 L 0.0001144357520388439 18.99738693237305 L 0.01442212797701359 18.99991035461426 L 0.03062212839722633 18.9990177154541 C 0.8709298372268677 18.98369407653809 5.35659122467041 18.8770637512207 11.16000652313232 18.28080177307129 C 16.9929141998291 17.68220329284668 25.3578987121582 16.45368003845215 32.08411407470703 14.00041770935059 C 38.80796051025391 11.54791069030762 43.88848495483398 7.871433258056641 46.96651458740234 5.219110012054443 C 50.26431274414062 2.377910137176514 52.06608200073242 0.02344870939850807 52.08390045166016 1.794104900909588e-05 L 52.09476089477539 0.009956402704119682 C 52.55643844604492 0.4114487171173096 55.06049728393555 2.549848794937134 59.02111434936523 5.219110012054443 C 62.95859146118164 7.872002601623535 69.11509704589844 11.54898738861084 76.08419036865234 14.00041770935059 C 83.05956268310547 16.45392608642578 90.84452819824219 17.68234062194824 96.14698791503906 18.28080177307129 C 101.6621932983398 18.90300178527832 105.6435928344727 18.99181747436523 106.0794219970703 18.99991035461426 L 101.971809387207 25.07760238647461 C 96.33155822753906 24.77520179748535 85.46957397460938 23.87189483642578 76.08420562744141 21.22471046447754 C 69.10920715332031 19.25795555114746 62.95532989501953 16.31038665771484 59.02111434936523 14.18400287628174 C 54.74889755249023 11.87571048736572 52.10372924804688 10.01497173309326 52.08390045166016 9.999910354614258 L 52.08020782470703 10.00450992584229 C 51.88936233520508 10.20255661010742 50.12419128417969 12.00271034240723 46.96651458740234 14.18400287628174 C 43.88680648803711 16.31038665771484 38.80489730834961 19.2579402923584 32.08411407470703 21.22471046447754 C 22.84786796569824 23.92600250244141 10.6066837310791 24.81394195556641 4.131898880004883 25.10280227661133 Z" stroke="none" fill="#eccf5d"/></g><path d="M107.5,812.5H168a12.287,12.287,0,0,1,1.25,5.25,23.054,23.054,0,0,1-1.25,6.432,30.963,30.963,0,0,0,1.25,7.318,32.856,32.856,0,0,0,3.25,6.824l-4.5,4.919V858H156.5s-12.5-19.546-24.75-28a33.326,33.326,0,0,0-24.25-5.818Z" transform="translate(6.003 -43.5)" stroke="#eccf5d" stroke-width="2"/><path d="M106.5,786s11.75-4.375,22,0,19,17.5,19,17.5-9,2.5-21.5-7.5-26.5,7.5-26.5,7.5Z" transform="translate(1 1)" stroke="#eccf5d" stroke-width="2"/><path d="M100.5,808s16-15.5,25-7,24.5,7,24.5,7l8,10s-12-4.5-30-4a195.292,195.292,0,0,0-33.5,4,21.608,21.608,0,0,0,5-5A7.65,7.65,0,0,0,100.5,808Z" stroke="#eccf5d" stroke-width="2"/></g><path d="M5.458,21.341H0l0-.027A82.914,82.914,0,0,1,2,10.84a27.607,27.607,0,0,1,3-7l.005,0c.444-.1,4.517-1.012,10.651-1.918A173.459,173.459,0,0,1,40.33,0,112.739,112.739,0,0,1,54.5.84c7.755.99,13.529,3.293,20.214,5.96l.006,0,.025.01c3.325,1.326,6.764,2.7,10.754,4.027a74.173,74.173,0,0,0,21,4l7.5,6.5-79.418,0L42.994,8.384,40.477,6.75,31,21.34H20.921l8.23-12.674L26.635,7.032,17.343,21.34H9.036l7.115-10.957L13.635,8.75,5.458,21.34Z" transform="translate(68.918 825.16)" stroke="#eccf5d" stroke-width="2"/><g transform="matrix(0.996, 0.087, -0.087, 0.996, 72.408, -9.819)"><path d="M23.668,92.424h0c0-.088-.015-.6-.038-1.442-.131.637-.2.995-.2,1l.151-2.794c-.176-5.8-.682-20.4-1.576-30.748-1.154-13.354-2.981-19.936-3-20A27.9,27.9,0,0,1,21,31.1a27.776,27.776,0,0,1,2.709-4.573,15.917,15.917,0,0,0-1.195,4.448c-.705,5.747,1.615,10.777,5.172,11.214a4.031,4.031,0,0,0,.5.031,6.034,6.034,0,0,0,4.631-2.773,14.54,14.54,0,0,0,2.6-6.887,16.079,16.079,0,0,0-.031-4.273A25.438,25.438,0,0,1,36.7,32.04a27.668,27.668,0,0,1,.7,7.57c-.029.061-2.965,6.2-6.427,19.174-2.551,9.558-5.368,22.693-6.821,29.671Z" transform="translate(176 745.229)" stroke="#eccf5d" stroke-width="2"/><g transform="translate(201 769)" stroke="#eccf5d" stroke-width="2"><circle cx="4.5" cy="4.5" r="4.5" stroke="none"/><circle cx="4.5" cy="4.5" r="3.5" fill="none"/></g></g><g transform="translate(68 849)" stroke="#eccf5d" stroke-width="2"><rect width="150" height="6" stroke="none"/><rect x="1" y="1" width="148" height="4" fill="none"/></g></g><g transform="translate(69 864)"><g transform="translate(42.083 29.5)"><g transform="translate(106.079 104.5) rotate(180)"><path d="M 62.84488296508789 50.00028991699219 L 53.9646110534668 50.00028991699219 L 38.19367218017578 26.617919921875 C 40.49991226196289 25.73787689208984 42.76919937133789 24.69009590148926 44.96467590332031 23.49143218994141 L 62.84488296508789 50.00028991699219 Z M 46.72755432128906 50.00028991699219 L 37.94100570678711 50.00028991699219 L 24.44205665588379 29.98796463012695 C 27.32186889648438 29.56606101989746 29.93283271789551 29.06570816040039 32.2225456237793 28.49650573730469 L 46.72755432128906 50.00028991699219 Z M 30.70396995544434 50.00028991699219 L 22.18201637268066 50.00028991699219 L 9.55617618560791 31.33806419372559 C 11.79189395904541 31.23795890808105 14.65159606933594 31.06809616088867 17.73981475830078 30.78057289123535 L 30.70396995544434 50.00028991699219 Z M 70.08218383789062 50.00023651123047 L 50.06327438354492 20.32161140441895 C 50.99787521362305 19.6606616973877 51.707275390625 19.107666015625 52.16603469848633 18.73530006408691 C 53.35393524169922 19.4670295715332 55.59182357788086 20.78076362609863 58.58063888549805 22.24670600891113 C 62.56143951416016 24.2006778717041 68.79132843017578 26.86757659912109 75.86235046386719 28.47550582885742 C 82.91217041015625 30.07821273803711 90.76865386962891 30.83002090454102 96.63401794433594 31.18242645263672 L 83.90448760986328 49.99880218505859 L 70.08218383789062 50.00023651123047 Z M 4.644968509674072 24.07807922363281 L 1.848649621009827 19.94514846801758 C 3.852347135543823 19.86807441711426 7.244943618774414 19.68830108642578 11.26211071014404 19.27556228637695 C 17.15139579772949 18.67116355895996 25.60393905639648 17.42833518981934 32.42665481567383 14.93986320495605 C 39.29243850708008 12.43559169769287 44.47802352905273 8.683377265930176 47.61918258666992 5.976634502410889 C 49.82550048828125 4.075809001922607 51.38893890380859 2.373150825500488 52.21133804321289 1.416374325752258 C 53.32586288452148 2.335245370864868 55.49238586425781 4.046888828277588 58.46212387084961 6.048348903656006 C 62.44816970825195 8.733977317810059 68.68338012695312 12.45722007751465 75.75226593017578 14.94374847412109 C 82.81605529785156 17.42836380004883 90.68085479736328 18.67021942138672 96.03473663330078 19.27449226379395 C 99.56246185302734 19.67247581481934 102.4714660644531 19.85407447814941 104.2398376464844 19.93575859069824 L 101.4607925415039 24.04770660400391 C 95.72623443603516 23.71868896484375 85.34748077392578 22.79846382141113 76.35558319091797 20.26224899291992 C 69.46865081787109 18.32033538818359 63.38626861572266 15.40663433074951 59.49646759033203 13.30427742004395 C 55.40199279785156 11.0919885635376 52.84383392333984 9.311605453491211 52.67552185058594 9.193575859069824 L 51.91318130493164 8.614134788513184 L 51.32955932617188 9.341995239257812 C 51.03359985351562 9.645048141479492 49.34872817993164 11.32289791107178 46.39802551269531 13.36123466491699 C 43.3790397644043 15.44567775726318 38.39612579345703 18.33559226989746 31.80313873291016 20.26494789123535 C 22.92536926269531 22.86140823364258 11.20026397705078 23.76585388183594 4.644968509674072 24.07807922363281 Z" stroke="none"/><path d="M 60.96417999267578 49.00030136108398 L 44.64067459106445 24.79935836791992 C 43.0318489074707 25.64455604553223 41.38640975952148 26.41061401367188 39.7188720703125 27.09087562561035 L 54.496337890625 49.00030136108398 L 60.96417999267578 49.00030136108398 M 44.84677886962891 49.00030136108398 L 31.78234672546387 29.63216781616211 C 30.06402587890625 30.03840827941895 28.1809253692627 30.4075927734375 26.15292739868164 30.73608016967773 L 38.47270584106445 49.00030136108398 L 44.84677886962891 49.00030136108398 M 28.82322120666504 49.00030136108398 L 17.24154853820801 31.83013153076172 C 15.12325191497803 32.01906585693359 13.12566471099854 32.15335845947266 11.37960243225098 32.24867630004883 L 22.71283531188965 49.00030136108398 L 28.82322120666504 49.00030136108398 M 70.61384582519531 49.00019073486328 L 83.37361907958984 48.99885940551758 L 94.82796478271484 32.06740951538086 C 89.16310119628906 31.67305183410645 82.07493591308594 30.91340637207031 75.64060974121094 29.45062637329102 C 68.47541046142578 27.82125663757324 62.168701171875 25.12187194824219 58.14028549194336 23.14453315734863 C 55.56198120117188 21.87992858886719 53.53226852416992 20.72511291503906 52.24213409423828 19.9515495300293 C 52.00563812255859 20.13558769226074 51.73552322387695 20.3413143157959 51.43348693847656 20.56470680236816 L 70.61384582519531 49.00019073486328 M 5.157894134521484 23.05166053771973 C 11.7581615447998 22.7175464630127 22.9894847869873 21.80075836181641 31.52228546142578 19.30521011352539 C 37.98745346069336 17.41324043273926 42.87139129638672 14.580979347229 45.82966995239258 12.5384407043457 C 48.60560607910156 10.62085819244385 50.25558090209961 9.004999160766602 50.5821533203125 8.675642013549805 L 51.74290084838867 7.229548931121826 L 53.26416397094727 8.384950637817383 C 53.50579452514648 8.553088188171387 56.04138946533203 10.30082130432129 59.97196197509766 12.42453384399414 C 63.81723785400391 14.50285625457764 69.82808685302734 17.38268661499023 76.62702178955078 19.2998104095459 C 85.24076080322266 21.72935485839844 95.16120910644531 22.662109375 100.9512481689453 23.01576614379883 L 102.4229507446289 20.83821296691895 C 100.7052154541016 20.73149108886719 98.47275543212891 20.5558910369873 95.92257690429688 20.2681941986084 C 90.51727294921875 19.65810203552246 82.57262420654297 18.40279579162598 75.42044067382812 15.88707160949707 C 68.25183868408203 13.36548709869385 61.93790054321289 9.595964431762695 57.90325546264648 6.877610206604004 C 55.46960830688477 5.23744535446167 53.56539916992188 3.786521911621094 52.32791137695312 2.798211097717285 C 51.41719055175781 3.802456378936768 50.05548095703125 5.197624683380127 48.2719612121582 6.73421049118042 C 45.06762313842773 9.495364189147949 39.77696228027344 13.323317527771 32.76931381225586 15.87931823730469 C 25.85013008117676 18.40297889709473 17.30999183654785 19.66013336181641 11.36431503295898 20.27033424377441 C 8.346660614013672 20.58036994934082 5.677127838134766 20.7598819732666 3.677254915237427 20.8632984161377 L 5.157894134521484 23.05166053771973 M 84.43430328369141 51.00030136108398 L 84.43265533447266 50.99917984008789 L 84.43294525146484 50.99874877929688 L 69.55051422119141 51.00030136108398 L 48.68157577514648 20.06144142150879 C 50.6777458190918 18.71088790893555 51.86363983154297 17.69270324707031 52.08110046386719 17.50228691101074 L 52.12250137329102 17.52839469909668 C 53.01844024658203 18.09919548034668 55.48417663574219 19.61414909362793 59.0210075378418 21.34890174865723 C 62.9542236328125 23.27950286865234 69.10728454589844 25.91388702392578 76.08408355712891 27.50041007995605 C 83.79902648925781 29.25431823730469 92.50556182861328 29.98081016540527 98.45089721679688 30.28141021728516 L 84.43430328369141 51.00030136108398 Z M 64.72560882568359 51.00030136108398 L 53.43289947509766 51.00030136108398 L 36.6515007019043 26.11979484558105 C 39.60196304321289 25.07470321655273 42.50496292114258 23.7466869354248 45.28037643432617 22.17116355895996 L 64.72560882568359 51.00030136108398 Z M 48.60799407958984 51.00030136108398 L 37.4093017578125 51.00030136108398 L 22.7168083190918 29.21850204467773 C 26.23665428161621 28.75350189208984 29.38800811767578 28.17597961425781 32.08400726318359 27.50041007995605 C 32.29386901855469 27.44793319702148 32.48139190673828 27.39965629577637 32.65731430053711 27.35280990600586 L 48.60799407958984 51.00030136108398 Z M 32.58440780639648 51.00030136108398 L 21.65120697021484 51.00030136108398 L 7.721007823944092 30.41010284423828 C 10.18434619903564 30.32522583007812 14.00753116607666 30.13968658447266 18.23660850524902 29.72881126403809 L 32.58440780639648 51.00030136108398 Z M 4.131807804107666 25.1027946472168 L 4.130899906158447 25.1027946472168 L 7.624229965585982e-06 18.99737930297852 L 0.01431531645357609 18.99990272521973 L 0.03051531687378883 18.99901008605957 C 0.8708230257034302 18.98368644714355 5.356484413146973 18.87705612182617 11.15991497039795 18.28080940246582 C 16.99280738830566 17.68218040466309 25.35779190063477 16.45367240905762 32.08400726318359 14.00039482116699 C 38.80785369873047 11.54790306091309 43.88837814331055 7.871425628662109 46.96640777587891 5.219102382659912 C 50.26420593261719 2.377902507781982 52.06597518920898 0.02344108000397682 52.08379364013672 -5.072960448160302e-06 L 52.09465408325195 0.009948773309588432 C 52.55633163452148 0.4114410877227783 55.06039047241211 2.549841165542603 59.0210075378418 5.219102382659912 C 62.9584846496582 7.871994972229004 69.114990234375 11.54897975921631 76.08408355712891 14.00039482116699 C 83.05945587158203 16.45391845703125 90.84442138671875 17.68233299255371 96.14688110351562 18.28080940246582 C 101.6620864868164 18.90300941467285 105.6434860229492 18.9918098449707 106.0793151855469 18.99990272521973 L 101.9717025756836 25.07759475708008 C 96.33145141601562 24.77519416809082 85.46946716308594 23.87188720703125 76.08409881591797 21.22470283508301 C 69.10910034179688 19.25794792175293 62.95522308349609 16.31037902832031 59.0210075378418 14.18399524688721 C 54.7487907409668 11.87568759918213 52.10362243652344 10.01496410369873 52.08379364013672 9.999902725219727 L 52.08010101318359 10.00450229644775 C 51.88925552368164 10.20254898071289 50.12408447265625 12.0027027130127 46.96640777587891 14.18399524688721 C 43.88669967651367 16.31037902832031 38.80479049682617 19.25793266296387 32.08400726318359 21.22470283508301 C 22.8477611541748 23.92599487304688 10.60657691955566 24.81393432617188 4.131807804107666 25.1027946472168 Z" stroke="none" fill="#eccf5d"/></g><path d="M172.5,858H112a12.287,12.287,0,0,1-1.25-5.25,23.054,23.054,0,0,1,1.25-6.432A30.963,30.963,0,0,0,110.75,839a32.856,32.856,0,0,0-3.25-6.824l4.5-4.919V812.5h11.5s12.5,19.546,24.75,28a33.326,33.326,0,0,0,24.25,5.818Z" transform="translate(-89.004 -809)" stroke="#eccf5d" stroke-width="2"/><path d="M140.5,801.833s-11.75,4.375-22,0-19-17.5-19-17.5,9-2.5,21.5,7.5,26.5-7.5,26.5-7.5Z" transform="translate(-51.001 -770.833)" stroke="#eccf5d" stroke-width="2"/><path d="M152,808.453s-16,15.5-25,7-24.5-7-24.5-7l-8-10s12,4.5,30,4a195.292,195.292,0,0,0,33.5-4,21.608,21.608,0,0,0-5,5A7.65,7.65,0,0,0,152,808.453Z" transform="translate(-55.501 -798.453)" stroke="#eccf5d" stroke-width="2"/></g><path d="M5.458,21.341H0l0-.027A82.914,82.914,0,0,1,2,10.84a27.607,27.607,0,0,1,3-7l.005,0c.444-.1,4.517-1.012,10.651-1.918A173.459,173.459,0,0,1,40.33,0,112.739,112.739,0,0,1,54.5.84c7.755.99,13.529,3.293,20.214,5.96l.006,0,.025.01c3.325,1.326,6.764,2.7,10.754,4.027a74.173,74.173,0,0,0,21,4l7.5,6.5-79.418,0L42.994,8.384,40.478,6.75,31,21.34H20.921l8.23-12.674L26.635,7.032,17.343,21.34H9.036l7.115-10.957L13.635,8.75,5.458,21.34Z" transform="translate(149.082 29.84) rotate(180)" stroke="#eccf5d" stroke-width="2"/><g transform="matrix(-0.996, -0.087, 0.087, -0.996, 18.357, 81.75)"><path d="M4.668,65.893h0c0-.088-.015-.6-.038-1.442-.131.637-.2.995-.2,1l.151-2.794C4.4,56.856,3.894,42.25,3,31.907c-1.154-13.354-2.981-19.936-3-20A27.9,27.9,0,0,1,2,4.573,27.775,27.775,0,0,1,4.709,0,15.917,15.917,0,0,0,3.514,4.448C2.808,10.2,5.128,15.226,8.686,15.662a4.031,4.031,0,0,0,.5.031,6.034,6.034,0,0,0,4.631-2.773,14.54,14.54,0,0,0,2.6-6.887,16.079,16.079,0,0,0-.031-4.273A25.438,25.438,0,0,1,17.7,5.509a27.668,27.668,0,0,1,.7,7.57c-.029.061-2.965,6.2-6.427,19.175C9.419,41.812,6.6,54.947,5.149,61.925Z" transform="translate(0 2.759)" stroke="#eccf5d" stroke-width="2"/><g transform="translate(6 0)" stroke="#eccf5d" stroke-width="2"><ellipse cx="4.5" cy="4.5" rx="4.5" ry="4.5" stroke="none"/><ellipse cx="4.5" cy="4.5" rx="3.5" ry="3.5" fill="none"/></g></g><g stroke="#eccf5d" stroke-width="2"><rect width="150" height="6" stroke="none"/><rect x="1" y="1" width="148" height="4" fill="none"/></g></g></g></svg>